<svg width="24" height="24" viewBox="0 0 16 16"
     xmlns="http://www.w3.org/2000/svg" fill="none">
  <path fill="#0A66C2" 
        d="M14.5 0h-13A1.5 1.5 0 0 0 0 
        1.5v13A1.5 1.5 0 0 0 1.5 16h13a1.5 
        1.5 0 0 0 1.5-1.5v-13A1.5 1.5 0 0 0 
        14.5 0zM4.75 13H2.75V6h2v7zm-1-8a1.12 
        1.12 0 1 1 0-2.25A1.12 1.12 0 0 1 3.75 
        5zm10.25 8h-2v-3.66c0-.87-.31-1.46-1.09-1.46-.6 
        0-.96.41-1.12.81-.06.15-.08.36-.08.57V13h-2V6h2v.97c
        .29-.45.82-1.1 2-1.1 1.46 0 2.29.96 2.29 2.94V13z"/>
</svg>
